# xmcd CD database file
#
# Track frame offsets:
#	150
#	25857
#	49250
#	70945
#	86952
#	107038
#	134499
#	157365
#	181662
#	214304
#
# Disc length: 3377 seconds
#
# Revision: 0
# Processed by: cddbd v1.5.2PL0 Copyright (c) Steve Scherf et al.
# Submitted via: CDex 1.70beta2
#
DISCID=950d2f0a
DTITLE=Michel Bisceglia Trio - Invisible Light
DYEAR=2009
DGENRE=Jazz
TTITLE0=Floating
TTITLE1=Esperanza
TTITLE2=Dark Light
TTITLE3=Speed Of Light
TTITLE4=O Ceu Do Alentejo
TTITLE5=Prova 21
TTITLE6=First Song
TTITLE7=At Night
TTITLE8=Prova 31
TTITLE9=The Vertov
EXTD=YEAR: 2009
EXTT0=
EXTT1=
EXTT2=
EXTT3=
EXTT4=
EXTT5=
EXTT6=
EXTT7=
EXTT8=
EXTT9=
PLAYORDER=
